<mxfile host="app.diagrams.net" modified="2023-07-20T02:21:18.103Z" agent="Mozilla/5.0 (Macintosh; Intel Mac OS X 10_15_7) AppleWebKit/537.36 (KHTML, like Gecko) Chrome/114.0.0.0 Safari/537.36" version="21.3.6" etag="UGFNOuQw3pnbG-B4Rv8g" type="github">
  <diagram name="ページ1" id="2EzgrPHD8qY9DXXXbD47">
    <mxGraphModel>
      <root>
        <mxCell id="0" />
        <mxCell id="1" parent="0" />
      </root>
    </mxGraphModel>
  </diagram>
</mxfile>
